<?xml version="1.0" encoding="utf-8"?>
<svg viewBox="156.459 83.402 872.259 871.809" xmlns="http://www.w3.org/2000/svg">
  <g transform="matrix(0.1, 0, 0, -0.1, -0.673807, 1048.5)" fill="#000000" stroke="none">
    <path d="M5645 9639 c-456 -29 -958 -146 -1380 -321 -160 -67 -476 -228 -610 -311 -443 -275 -834 -624 -1155 -1032 -397 -503 -682 -1102 -824 -1733 -27 -119 -68 -375 -88 -547 -20 -171 -16 -686 6 -865 102 -840 382 -1545 865 -2180 453 -596 1072 -1083 1736 -1365 61 -26 124 -53 140 -60 77 -34 416 -141 560 -175 392 -95 565 -114 1035 -114 425 -1 547 10 865 75 848 173 1610 583 2219 1194 740 742 1177 1690 1266 2750 13 154 13 506 0 660 -29 345 -94 677 -193 990 -252 793 -727 1499 -1372 2036 -399 333 -839 582 -1335 759 -543 193 -1153 277 -1735 239z m555 -119 c499 -35 1018 -158 1398 -331 35 -16 66 -29 69 -29 14 0 311 -155 414 -215 331 -196 569 -383 859 -674 297 -299 461 -516 710 -941 14 -25 54 -101 87 -170 426 -869 543 -1854 333 -2805 -127 -573 -381 -1125 -739 -1605 -95 -128 -88 -119 -233 -285 -510 -581 -1218 -1031 -1968 -1250 -335 -97 -623 -145 -1003 -167 -367 -21 -826 23 -1192 113 -708 175 -1306 491 -1845 975 -498 447 -897 1030 -1127 1649 -49 132 -77 211 -92 265 -5 19 -18 67 -29 105 -157 547 -193 1242 -96 1825 111 673 386 1314 794 1856 614 813 1492 1378 2480 1594 377 83 809 116 1180 90z" style="paint-order: stroke;"/>
    <path d="M6351 9259 c-13 -36 -31 -141 -25 -150 3 -5 16 -9 29 -9 26 0 28 -4 46 -100 6 -36 16 -69 20 -74 5 -6 9 -21 9 -35 0 -30 24 -152 55 -286 13 -55 26 -121 30 -147 9 -71 27 -86 134 -114 51 -13 97 -24 101 -24 8 0 94 114 207 275 105 149 217 300 227 307 5 4 22 4 37 1 23 -4 28 -1 37 27 18 50 26 127 14 134 -6 3 -30 10 -54 15 -24 5 -93 20 -155 34 -62 13 -116 21 -121 18 -5 -3 -15 -37 -22 -75 -13 -67 -12 -70 8 -84 21 -14 21 -14 -19 -70 -22 -32 -65 -94 -95 -139 -30 -46 -58 -83 -63 -83 -8 0 -11 18 -31 185 -5 44 -12 97 -16 118 -6 36 -6 37 24 37 37 0 47 15 56 88 8 61 -3 82 -42 82 -14 0 -39 4 -56 9 -17 6 -87 23 -156 40 -69 17 -135 33 -147 37 -18 5 -24 1 -32 -17z m179 -219 c0 -5 -4 -10 -10 -10 -5 0 -10 5 -10 10 0 6 5 10 10 10 6 0 10 -4 10 -10z m70 -60 c0 -5 -5 -10 -11 -10 -5 0 -7 5 -4 10 3 6 8 10 11 10 2 0 4 -4 4 -10z m11 -333 c-13 -13 -26 -3 -16 12 3 6 11 8 17 5 6 -4 6 -10 -1 -17z" style="paint-order: stroke;"/>
    <path d="M5205 9200 c-27 -4 -68 -12 -90 -18 -22 -6 -66 -14 -98 -18 -70 -8 -84 -28 -62 -90 8 -22 14 -49 15 -61 0 -23 7 -27 47 -23 16 1 24 -5 27 -22 3 -13 17 -90 31 -173 15 -82 32 -179 39 -215 15 -73 9 -90 -32 -90 -24 0 -25 -1 -19 -55 3 -30 12 -67 19 -82 16 -33 15 -33 198 2 69 13 186 33 260 45 216 34 205 30 204 70 -2 60 -36 264 -47 278 -5 7 -18 10 -28 7 -21 -7 -44 -12 -103 -20 -65 -10 -83 -26 -68 -59 17 -38 15 -103 -3 -110 -8 -3 -37 -8 -64 -12 -59 -8 -51 -30 -86 219 -15 98 -30 190 -36 203 -14 40 -11 64 9 64 43 0 51 35 27 118 -15 51 -17 52 -53 51 -20 -1 -59 -5 -87 -9z m-25 -230 c0 -5 -4 -10 -10 -10 -5 0 -10 5 -10 10 0 6 5 10 10 10 6 0 10 -4 10 -10z m38 -15 c-3 -3 -9 2 -12 12 -6 14 -5 15 5 6 7 -7 10 -15 7 -18z m-18 -69 c0 -3 -4 -8 -10 -11 -5 -3 -10 -1 -10 4 0 6 5 11 10 11 6 0 10 -2 10 -4z m60 -26 c0 -5 -2 -10 -4 -10 -3 0 -8 5 -11 10 -3 6 -1 10 4 10 6 0 11 -4 11 -10z m-45 -160 c3 -5 -1 -10 -10 -10 -9 0 -13 5 -10 10 3 6 8 10 10 10 2 0 7 -4 10 -10z m15 -124 c0 -3 -4 -8 -10 -11 -5 -3 -10 -1 -10 4 0 6 5 11 10 11 6 0 10 -2 10 -4z" style="paint-order: stroke;"/>
    <path d="M4524 9015 c-69 -34 -233 -112 -457 -218 -115 -55 -118 -56 -111 -84 4 -15 15 -39 24 -53 10 -14 21 -36 25 -48 5 -19 12 -22 28 -17 65 20 62 22 97 -61 18 -43 61 -139 96 -213 35 -74 64 -142 64 -151 0 -11 -12 -22 -31 -29 -26 -9 -29 -14 -24 -33 6 -18 57 -111 70 -126 1 -1 139 63 307 143 168 80 310 145 315 145 6 0 16 6 22 14 12 14 1 51 -28 96 -6 8 -22 44 -37 80 -15 36 -31 69 -35 73 -10 13 -121 -27 -153 -55 -6 -5 -20 -15 -31 -22 -19 -14 -19 -15 -2 -50 9 -20 17 -42 17 -49 0 -15 -102 -67 -131 -67 -15 0 -28 17 -51 67 l-31 66 31 29 c18 15 42 28 55 28 27 0 86 35 93 55 7 18 -10 64 -43 118 l-23 37 -91 -46 -91 -47 -27 34 c-14 18 -29 47 -33 64 -8 37 8 55 72 80 25 9 51 19 58 22 7 3 20 -13 33 -41 16 -38 24 -46 39 -41 26 8 180 84 180 88 0 11 -111 237 -119 241 -4 3 -39 -10 -77 -29z m-354 -305 c0 -5 -2 -10 -4 -10 -3 0 -8 5 -11 10 -3 6 -1 10 4 10 6 0 11 -4 11 -10z m197 -416 c-3 -3 -12 -4 -19 -1 -8 3 -5 6 6 6 11 1 17 -2 13 -5z m73 -78 c0 -3 -4 -8 -10 -11 -5 -3 -10 -1 -10 4 0 6 5 11 10 11 6 0 10 -2 10 -4z" style="paint-order: stroke;"/>
    <path d="M7489 8937 c-16 -12 -59 -100 -59 -122 0 -6 11 -17 25 -23 14 -6 25 -18 25 -26 0 -8 -26 -58 -58 -113 -33 -54 -80 -138 -106 -188 -25 -49 -53 -99 -61 -110 -15 -19 -16 -19 -47 -1 -30 19 -31 19 -45 0 -19 -24 -63 -111 -63 -122 0 -7 174 -107 418 -239 73 -40 126 -69 164 -93 21 -12 43 -20 49 -18 6 2 25 30 43 63 18 33 47 85 64 116 l32 56 -57 40 c-32 22 -69 42 -83 45 -14 3 -33 9 -42 13 -13 5 -22 -3 -38 -34 -11 -23 -28 -41 -37 -41 -18 0 -114 57 -125 73 -8 14 51 127 70 134 19 8 92 -18 92 -32 0 -13 34 -29 82 -41 23 -5 30 -1 50 33 32 50 51 100 44 111 -3 5 -44 28 -91 51 -70 34 -85 46 -80 59 4 9 10 26 13 37 7 27 41 75 53 75 16 0 118 -52 130 -67 8 -9 6 -22 -10 -48 -12 -20 -21 -40 -21 -45 0 -9 73 -54 142 -87 l48 -22 25 43 c14 23 25 46 25 49 0 3 16 32 35 64 19 32 35 66 35 75 0 11 -17 26 -42 39 -24 12 -107 57 -184 100 -78 44 -144 79 -147 79 -4 0 -30 14 -59 32 -174 103 -181 106 -209 85z m-119 -675 c0 -5 -7 -9 -15 -9 -8 0 -12 4 -9 9 3 4 9 8 15 8 5 0 9 -4 9 -8z" style="paint-order: stroke;"/>
    <path d="M3455 8386 l-140 -134 50 -53 c28 -30 51 -56 53 -59 2 -2 17 3 34 13 l31 18 49 -48 c26 -26 48 -54 48 -61 0 -18 -120 -132 -138 -132 -7 0 -36 23 -64 50 l-51 51 26 27 c26 27 26 29 10 52 -23 34 -83 90 -97 90 -16 -1 -35 -17 -166 -142 -66 -63 -120 -120 -120 -125 0 -5 17 -26 38 -45 20 -20 42 -43 47 -53 11 -17 12 -17 38 0 37 24 58 12 139 -79 35 -39 100 -110 146 -158 45 -49 82 -93 82 -100 0 -6 -7 -19 -16 -29 -21 -24 -12 -47 40 -98 32 -31 48 -41 59 -35 8 5 64 55 124 112 60 57 120 110 131 118 12 8 22 21 22 27 -1 7 -23 37 -50 66 l-48 55 -36 -19 -36 -19 -48 54 -49 55 21 28 c34 45 67 76 99 92 31 15 31 15 79 -32 49 -48 60 -79 33 -89 -8 -4 -15 -13 -15 -22 0 -19 90 -112 108 -112 8 0 53 37 100 83 48 45 108 101 135 124 26 22 47 48 47 55 0 8 -12 26 -27 40 -16 15 -39 38 -52 52 -27 30 -34 32 -51 11 -22 -26 -47 -16 -82 33 -19 26 -88 103 -154 171 -65 68 -120 129 -122 136 -2 6 4 18 13 25 8 7 15 20 15 30 0 17 -91 110 -107 110 -4 0 -71 -61 -148 -134z m154 -223 c-1 -17 -3 -21 -6 -10 -2 9 -9 17 -14 17 -6 0 -7 5 -4 10 12 19 25 10 24 -17z m76 -3 c3 -5 1 -10 -4 -10 -6 0 -11 5 -11 10 0 6 2 10 4 10 3 0 8 -4 11 -10z m80 -50 c3 -5 1 -10 -4 -10 -6 0 -11 5 -11 10 0 6 2 10 4 10 3 0 8 -4 11 -10z m-17 -28 c2 -7 -3 -12 -12 -12 -9 0 -16 7 -16 16 0 17 22 14 28 -4z m202 -122 c0 -5 -5 -10 -11 -10 -5 0 -7 5 -4 10 3 6 8 10 11 10 2 0 4 -4 4 -10z m-48 -72 c-7 -7 -12 -8 -12 -2 0 14 12 26 19 19 2 -3 -1 -11 -7 -17z m-438 -63 c-4 -8 -11 -15 -16 -15 -6 0 -5 6 2 15 7 8 14 15 16 15 2 0 1 -7 -2 -15z m16 -120 c0 -5 -5 -3 -10 5 -5 8 -10 20 -10 25 0 6 5 3 10 -5 5 -8 10 -19 10 -25z m90 -130 c0 -8 -7 -15 -15 -15 -9 0 -12 6 -9 15 4 8 10 15 15 15 5 0 9 -7 9 -15z m87 -11 c-3 -3 -12 -4 -19 -1 -8 3 -5 6 6 6 11 1 17 -2 13 -5z" style="paint-order: stroke;"/>
    <path d="M8347 8340 l-50 -50 21 -23 c12 -13 22 -28 22 -34 0 -12 -331 -353 -343 -353 -4 0 -17 9 -29 20 -12 11 -26 20 -30 20 -9 0 -108 -101 -108 -110 0 -11 294 -306 331 -333 69 -49 149 -79 229 -84 68 -5 83 -2 149 26 117 50 201 127 256 235 57 113 52 209 -19 351 -40 80 -62 106 -191 238 -97 98 -152 147 -167 147 -12 0 -42 -21 -71 -50z m123 -176 c0 -2 -11 -4 -25 -4 -14 0 -25 4 -25 9 0 4 11 6 25 3 14 -2 25 -6 25 -8z m50 -14 c0 -5 -4 -10 -10 -10 -5 0 -10 5 -10 10 0 6 5 10 10 10 6 0 10 -4 10 -10z m-100 -24 c0 -3 -4 -8 -10 -11 -5 -3 -10 -1 -10 4 0 6 5 11 10 11 6 0 10 -2 10 -4z m140 -108 c21 -22 40 -77 40 -113 -1 -84 -144 -243 -237 -263 -60 -13 -122 -6 -153 18 -21 16 -23 22 -15 44 12 31 313 336 332 336 7 0 21 -10 33 -22z m-390 -148 c0 -5 -2 -10 -4 -10 -3 0 -8 5 -11 10 -3 6 -1 10 4 10 6 0 11 -4 11 -10z m-140 -75 c-7 -9 -15 -13 -17 -11 -7 7 7 26 19 26 6 0 6 -6 -2 -15z m700 -5 c0 -5 -7 -7 -15 -4 -8 4 -15 8 -15 10 0 2 7 4 15 4 8 0 15 -4 15 -10z m-120 -181 c0 -5 -4 -8 -9 -5 -5 4 -11 1 -13 -6 -3 -8 -7 -6 -11 5 -5 12 -1 17 13 17 11 0 20 -5 20 -11z m-233 -79 c1 -11 -3 -20 -9 -20 -6 0 -8 3 -5 7 4 3 2 12 -4 20 -9 10 -8 13 3 13 7 0 14 -9 15 -20z m93 0 c0 -5 -4 -10 -10 -10 -5 0 -10 5 -10 10 0 6 5 10 10 10 6 0 10 -4 10 -10z" style="paint-order: stroke;"/>
    <path d="M5648 8130 c-663 -76 -1255 -354 -1713 -805 -462 -455 -737 -1004 -836 -1670 -19 -121 -19 -618 -1 -735 54 -350 140 -629 282 -912 52 -104 130 -244 152 -273 5 -5 33 -46 64 -90 320 -456 784 -821 1297 -1019 221 -85 491 -153 712 -177 143 -16 510 -17 650 -1 639 73 1238 364 1701 827 274 275 499 623 642 995 74 194 108 319 146 541 76 440 45 903 -89 1329 -100 319 -291 681 -477 905 -19 22 -51 62 -73 89 -114 143 -329 341 -518 476 -337 243 -754 418 -1162 489 -33 6 -89 15 -125 21 -83 15 -551 21 -652 10z m672 -49 c217 -34 247 -41 372 -76 348 -99 653 -251 948 -473 128 -96 395 -354 480 -464 30 -39 60 -76 65 -82 21 -23 104 -144 150 -221 182 -300 294 -587 365 -930 67 -324 66 -766 -1 -1100 -85 -425 -267 -826 -527 -1164 -86 -112 -275 -321 -291 -321 -3 0 -16 15 -28 33 -61 89 -210 207 -261 207 -19 0 -51 24 -117 88 -93 89 -206 182 -221 182 -5 0 -21 10 -36 23 -117 97 -121 99 -132 72 -3 -8 -12 -15 -20 -15 -11 0 -13 11 -10 53 2 28 4 72 4 96 -1 41 0 43 23 37 20 -5 26 0 41 31 18 37 14 93 -6 93 -7 0 -7 4 0 13 8 10 6 24 -8 53 -11 21 -21 50 -22 64 -3 21 2 26 25 28 24 3 40 22 19 22 -15 0 -32 49 -32 90 0 28 4 40 14 40 19 0 27 51 25 168 -2 90 -4 103 -25 125 -20 22 -30 24 -70 21 -59 -6 -112 -46 -113 -86 -1 -15 -8 -33 -16 -42 -8 -8 -15 -17 -15 -20 0 -3 7 -6 15 -6 16 0 21 -25 7 -34 -4 -2 -37 -5 -72 -7 -36 -1 -71 -4 -77 -7 -15 -5 -17 -38 -3 -47 6 -3 10 -1 10 6 0 20 13 1 26 -39 13 -35 12 -38 -17 -64 -28 -26 -29 -30 -25 -90 4 -49 1 -67 -11 -81 -11 -12 -13 -21 -6 -28 6 -6 6 -25 -2 -57 -9 -36 -17 -48 -34 -50 -13 -2 -28 4 -35 14 -9 12 -20 15 -39 10 -22 -5 -27 -3 -27 12 0 26 11 34 27 21 21 -18 16 21 -12 98 -29 78 -45 93 -96 93 -22 0 -45 7 -54 17 -14 13 -21 14 -36 4 -11 -6 -25 -9 -31 -5 -7 5 -9 -10 -6 -50 4 -43 1 -56 -9 -56 -16 0 -63 44 -63 59 0 25 -38 51 -87 61 -53 11 -53 11 -53 50 0 39 23 65 73 83 16 6 18 15 14 65 -4 49 -35 151 -66 217 -5 11 -12 42 -14 70 -7 69 -38 96 -99 85 -24 -5 -51 -12 -60 -15 -39 -15 -65 -95 -47 -142 l10 -28 17 21 c9 12 29 29 44 39 26 16 29 16 60 -2 37 -22 58 -74 39 -96 -6 -8 -32 -22 -58 -32 l-46 -18 -19 27 c-33 45 -89 27 -167 -51 l-44 -45 -111 9 c-139 10 -232 10 -242 0 -4 -4 6 -22 24 -39 27 -28 41 -33 100 -38 59 -6 77 -13 133 -51 35 -24 75 -49 89 -55 57 -26 82 -34 104 -34 12 0 30 -6 40 -13 18 -13 18 -15 2 -40 -17 -25 -17 -26 5 -37 27 -15 39 0 39 48 0 17 5 32 10 32 21 0 4 -89 -19 -98 -9 -3 -22 -12 -29 -19 -11 -11 -8 -16 17 -31 17 -9 31 -20 31 -24 0 -5 -24 -8 -52 -8 -38 -1 -64 -7 -93 -25 -43 -27 -84 -32 -103 -13 -16 16 -156 17 -209 2 -34 -9 -46 -9 -61 2 -16 11 -22 11 -40 -6 -23 -22 -32 -17 -32 18 0 19 -4 23 -17 17 -34 -15 -73 -17 -87 -6 -11 9 -15 7 -20 -11 l-6 -23 -21 25 c-28 33 -45 32 -96 -2 -38 -26 -43 -33 -43 -68 0 -21 -4 -41 -8 -44 -14 -8 -6 -76 10 -89 8 -7 22 -25 32 -41 15 -24 20 -26 31 -15 7 8 16 24 20 37 5 18 2 22 -14 22 -27 0 -51 10 -51 22 0 5 15 8 32 6 24 -2 33 1 34 12 1 28 16 51 46 66 16 8 33 12 38 9 5 -3 58 -1 117 5 59 6 221 11 358 11 219 0 255 -3 287 -18 39 -19 54 -55 20 -46 -12 3 -30 -7 -50 -26 -21 -21 -40 -31 -61 -31 -21 0 -31 -5 -31 -15 0 -8 7 -15 15 -15 8 0 15 -6 15 -14 0 -9 -18 -17 -47 -23 -44 -8 -48 -11 -45 -35 2 -19 -3 -27 -18 -31 -17 -4 -19 -2 -14 20 6 22 4 24 -17 21 -23 -3 -24 -7 -24 -77 0 -52 4 -76 13 -79 7 -2 16 5 19 17 3 12 9 21 14 21 5 0 9 11 9 24 0 14 5 28 12 32 8 5 9 -2 5 -23 -11 -53 0 -70 48 -75 66 -8 127 12 171 55 25 24 44 35 54 31 66 -28 64 -28 136 7 52 26 70 40 74 59 4 15 15 26 30 30 35 8 39 48 8 71 -21 16 -21 18 -5 25 10 3 35 4 56 1 34 -4 41 -1 52 20 8 15 19 23 30 20 9 -2 27 2 40 9 34 19 49 17 49 -7 0 -12 4 -18 11 -13 12 7 29 -12 29 -33 0 -7 -6 -13 -14 -13 -8 0 -25 -13 -39 -29 -17 -20 -28 -26 -38 -20 -23 14 -49 10 -55 -8 -3 -10 -9 -25 -14 -34 -4 -9 -4 -33 0 -55 17 -79 27 -119 35 -137 7 -17 6 -18 -14 -5 -20 12 -25 10 -47 -15 -30 -35 -22 -51 22 -44 30 5 34 3 34 -18 0 -29 -20 -37 -45 -19 -36 26 -71 14 -43 -14 10 -10 10 -15 -1 -21 -11 -7 -12 -23 -7 -66 3 -31 11 -66 17 -77 14 -26 3 -36 -18 -16 -14 15 -17 33 -22 141 -1 27 -17 20 -31 -13 -10 -23 -10 -40 -1 -75 13 -51 8 -68 -18 -60 -17 5 -20 2 -56 -70 -37 -74 -66 -105 -98 -105 -16 0 -59 -7 -95 -16 -58 -14 -83 -23 -126 -43 -5 -2 -7 3 -4 10 18 48 19 59 4 59 -8 0 -24 10 -35 21 -12 13 -26 19 -35 16 -11 -4 -21 3 -31 23 -16 32 -55 42 -55 15 0 -9 -9 -15 -25 -15 -24 0 -32 -19 -26 -54 4 -19 -23 -56 -41 -56 -12 0 -18 7 -18 24 0 32 -15 41 -32 18 -7 -10 -21 -21 -31 -25 -15 -5 -16 -2 -12 24 6 32 -9 69 -27 69 -7 0 -9 -16 -6 -45 4 -34 2 -45 -8 -45 -8 0 -14 6 -14 13 -1 7 -6 4 -15 -7 -11 -15 -22 -17 -63 -11 -32 4 -52 3 -57 -4 -9 -16 -31 -14 -49 4 -13 13 -19 14 -36 3 -17 -11 -22 -11 -30 2 -5 8 -10 25 -10 37 0 14 -10 26 -30 35 -21 9 -30 20 -30 35 0 16 -6 23 -20 23 -23 0 -27 15 -5 24 16 6 21 41 6 50 -5 3 -14 -1 -21 -9 -10 -13 -14 -13 -27 0 -8 8 -23 15 -34 15 -20 0 -44 44 -33 61 12 21 -6 59 -32 65 -21 5 -24 11 -20 30 7 27 -11 33 -33 12 -10 -11 -11 -8 -6 15 4 15 3 27 -1 26 -24 -4 -34 3 -34 25 0 43 -18 78 -38 72 -12 -4 -21 4 -32 26 -12 24 -23 31 -48 33 -18 2 -35 -2 -38 -7 -3 -5 -11 -5 -19 2 -20 17 -28 -6 -9 -25 10 -10 27 -15 41 -12 15 3 23 -1 23 -9 0 -8 10 -16 23 -19 18 -5 22 -13 23 -48 2 -80 22 -118 117 -219 22 -25 30 -28 42 -18 8 7 15 11 16 9 0 -2 2 -14 3 -25 1 -12 10 -29 19 -39 9 -9 17 -27 17 -40 0 -14 7 -26 18 -29 9 -3 28 -21 40 -40 14 -21 35 -37 53 -41 17 -4 29 -13 29 -23 0 -20 67 -82 90 -82 9 0 25 -9 36 -21 12 -13 26 -18 40 -15 17 5 29 -4 58 -41 20 -25 36 -52 36 -59 0 -16 59 -66 70 -59 16 10 22 -17 10 -40 -13 -25 -8 -55 10 -55 5 0 10 9 10 19 0 17 3 18 24 8 l25 -12 -32 -20 -31 -20 39 -7 c22 -4 56 -8 75 -9 22 -1 28 -3 15 -6 -21 -5 -55 -36 -55 -51 0 -5 11 -15 25 -22 l25 -13 -20 -19 c-19 -18 -27 -19 -118 -8 -179 21 -319 55 -417 101 -22 10 -52 23 -67 28 -16 6 -28 15 -28 20 0 6 -30 31 -67 58 -38 26 -86 64 -108 86 -22 21 -52 45 -66 54 -15 9 -39 36 -54 60 -16 23 -31 43 -34 43 -14 0 -62 112 -71 165 -11 66 -5 254 10 305 5 19 10 81 10 137 0 79 -3 105 -16 117 -14 15 -19 13 -54 -20 -28 -27 -40 -47 -44 -79 -4 -26 -16 -51 -31 -65 -13 -13 -22 -27 -19 -32 15 -24 -53 -148 -81 -148 -7 0 -15 -12 -18 -27 -8 -34 -24 -60 -32 -51 -4 3 0 19 8 35 8 15 18 44 22 63 21 101 108 270 175 338 44 46 70 95 70 133 0 32 -17 48 -26 25 -9 -23 -21 -11 -28 29 -4 19 -12 35 -19 35 -35 0 -120 -84 -174 -171 -19 -32 -42 -61 -51 -65 -10 -3 -56 -12 -103 -19 -78 -11 -144 -35 -214 -78 -41 -24 -74 -65 -164 -198 -69 -103 -98 -139 -118 -144 -16 -4 -31 -1 -38 7 -10 10 -74 90 -124 154 -4 5 -40 57 -78 115 -323 480 -485 1041 -470 1626 5 233 25 395 72 588 121 503 355 934 708 1301 64 67 157 155 205 196 48 40 89 75 92 78 25 26 199 144 295 201 342 203 673 316 1090 374 153 22 184 23 410 19 144 -2 249 -10 335 -23z m-206 -3681 c23 0 30 -20 13 -37 -14 -14 -18 -13 -41 13 -14 16 -26 34 -26 41 0 20 25 21 32 1 4 -10 14 -18 22 -18z m116 -60 c12 -46 29 -47 22 -2 -2 16 1 33 7 36 6 4 11 3 11 -2 0 -5 9 -12 20 -15 13 -3 20 -14 20 -30 0 -14 7 -33 16 -42 9 -9 14 -18 11 -21 -3 -3 -14 5 -26 17 -18 20 -21 20 -27 6 -9 -24 -27 -21 -56 11 -33 34 -47 82 -24 82 9 0 19 -15 26 -40z m253 6 c33 -28 35 -40 5 -31 -17 6 -20 4 -15 -9 4 -10 1 -16 -7 -16 -12 0 -28 24 -40 63 -8 25 23 22 57 -7z m531 -102 c9 -3 16 -12 16 -19 0 -8 11 -27 25 -43 14 -17 25 -35 25 -41 0 -7 7 -14 15 -17 23 -9 18 -20 -17 -42 l-32 -20 -10 20 c-15 29 -33 33 -41 9 -8 -25 -30 -28 -39 -5 -12 30 -6 52 15 57 19 5 21 11 16 42 -5 32 -1 65 8 65 2 0 10 -3 19 -6z m-144 -590 c0 -3 -5 -14 -11 -25 -10 -20 -12 -20 -30 -3 -10 9 -16 21 -13 25 6 10 54 12 54 3z m109 -191 c1 -29 -4 -55 -10 -59 -8 -5 -10 2 -6 21 2 16 0 36 -5 45 -7 10 -8 32 -3 56 7 36 8 37 15 14 5 -14 8 -48 9 -77z m-2549 -380 c7 -16 12 -32 11 -37 -1 -5 3 -12 9 -16 11 -7 17 -127 7 -137 -11 -10 -76 38 -71 51 3 8 1 17 -4 20 -7 4 -7 19 0 42 5 20 7 45 5 56 -13 49 22 65 43 21z" style="paint-order: stroke;"/>
    <path d="M5620 7728 c-19 -13 -41 -28 -48 -35 -17 -17 -39 -17 -45 0 -3 9 -10 7 -25 -6 -11 -10 -40 -21 -64 -24 -24 -3 -51 -10 -61 -15 -24 -12 -11 -30 16 -23 21 6 21 5 -2 -14 -13 -12 -31 -21 -41 -21 -13 0 -23 -14 -33 -45 -15 -44 -15 -45 4 -35 10 6 19 17 19 24 0 8 14 19 30 26 17 7 36 20 43 29 29 39 81 63 165 78 48 8 98 17 111 19 13 3 25 14 28 24 3 11 14 20 24 20 10 0 21 5 24 10 4 6 -16 10 -52 10 -42 0 -67 -6 -93 -22z" style="paint-order: stroke;"/>
    <path d="M6416 7712 c-9 -14 -1 -18 84 -41 92 -26 113 -27 108 -4 -5 26 -178 67 -192 45z" style="paint-order: stroke;"/>
    <path d="M5846 7694 c-79 -22 -80 -38 -1 -22 28 5 75 11 105 13 l55 4 -48 -9 c-63 -11 -71 -20 -20 -20 42 0 143 28 143 40 0 12 -185 8 -234 -6z" style="paint-order: stroke;"/>
    <path d="M6163 7672 c-29 -9 -53 -20 -53 -24 0 -13 60 -9 119 8 109 32 110 32 46 32 -33 0 -84 -7 -112 -16z" style="paint-order: stroke;"/>
    <path d="M6296 7641 c-65 -7 -87 -28 -35 -33 39 -4 52 -28 15 -28 -13 0 -28 -4 -31 -10 -3 -5 -19 -10 -34 -10 -15 0 -36 -6 -46 -14 -18 -13 -17 -14 13 -30 17 -9 55 -23 84 -30 46 -13 49 -15 21 -15 -18 -1 -33 -5 -33 -11 0 -5 5 -10 12 -10 6 0 70 -2 141 -5 99 -4 133 -2 139 7 11 18 10 58 -1 58 -5 0 -16 6 -23 14 -8 8 -37 25 -64 39 l-49 26 38 1 c20 0 37 5 37 10 0 21 25 8 61 -31 21 -23 41 -51 44 -63 15 -51 40 -86 62 -86 27 0 29 -11 6 -32 -28 -24 -45 -26 -65 -6 -22 22 -55 23 -130 2 -60 -17 -69 -27 -42 -42 14 -8 14 -10 0 -21 -23 -19 -20 -33 6 -29 30 4 37 -28 9 -37 -11 -3 -30 -19 -41 -36 -12 -16 -28 -29 -36 -29 -8 0 -14 -10 -14 -25 0 -33 -69 -108 -86 -94 -14 12 -44 1 -44 -16 0 -6 -9 -20 -20 -30 -36 -32 -23 -49 15 -19 19 14 35 22 35 16 0 -22 -66 -62 -101 -62 l-34 1 49 43 c41 36 47 45 33 52 -15 9 -14 12 8 36 13 14 30 28 37 31 7 2 10 7 7 11 -4 4 -22 -2 -40 -13 -19 -12 -37 -21 -41 -21 -14 0 -9 28 8 44 8 9 13 24 10 34 -5 13 1 22 19 30 14 7 25 20 25 31 0 10 6 21 14 24 8 3 16 16 18 29 2 14 15 29 35 38 28 13 30 17 19 33 -7 9 -21 17 -30 17 -9 0 -16 5 -16 10 0 6 12 10 28 10 15 0 34 5 42 10 12 8 8 10 -15 11 -104 4 -245 21 -245 29 0 8 58 20 105 20 29 0 29 1 9 13 -12 6 -34 21 -50 32 -18 13 -45 20 -76 21 -26 0 -51 3 -55 7 -3 4 8 7 25 7 27 0 120 25 131 36 12 11 -27 34 -58 34 -56 0 -81 -10 -81 -31 0 -16 5 -18 28 -13 15 4 24 3 20 -1 -4 -4 -49 -9 -100 -11 -51 -1 -119 -6 -150 -9 -36 -5 -58 -3 -58 3 0 10 51 24 133 37 66 11 39 21 -50 19 -97 -1 -136 -11 -182 -45 -26 -19 -32 -20 -47 -9 -14 12 -17 12 -25 -3 -6 -9 -20 -17 -32 -17 -28 0 -147 -56 -147 -69 0 -12 89 -3 106 10 6 5 13 7 15 5 2 -2 48 -9 103 -16 93 -11 102 -14 160 -56 33 -25 85 -52 114 -60 29 -9 65 -22 80 -30 15 -8 32 -14 38 -14 6 0 17 -7 24 -15 7 -8 23 -15 36 -15 13 0 24 -5 24 -11 0 -8 -20 -10 -59 -7 -56 4 -60 3 -66 -19 -4 -17 -12 -23 -35 -23 -31 0 -49 15 -28 23 7 3 1 6 -14 6 -43 1 -81 -17 -113 -55 -22 -26 -35 -33 -48 -28 -24 9 -17 26 19 43 20 10 24 16 14 19 -8 3 -20 11 -27 17 -8 8 -29 11 -58 8 -39 -5 -45 -3 -39 11 8 20 0 20 -29 2 -29 -19 -83 -10 -66 10 9 11 6 14 -15 14 -33 0 -35 25 -3 41 12 7 51 20 86 29 74 20 66 35 -14 25 -67 -9 -186 -84 -228 -145 -16 -22 -33 -40 -38 -40 -14 0 -11 9 12 41 24 34 28 87 8 100 -10 6 -26 -3 -54 -31 -42 -42 -80 -116 -64 -126 13 -8 50 6 44 16 -3 5 -1 11 5 15 5 3 10 -3 10 -14 0 -11 9 -22 19 -26 11 -3 25 -21 31 -39 6 -19 25 -55 42 -81 28 -42 34 -46 62 -42 24 3 37 -1 56 -22 38 -41 92 -54 250 -61 80 -3 153 -10 163 -14 13 -6 17 -4 18 10 0 13 4 11 11 -8 7 -22 16 -28 38 -28 16 0 32 5 36 11 4 8 9 7 15 -2 7 -11 12 -12 29 -1 25 15 80 16 80 1 0 -8 11 -9 31 -5 26 5 29 4 20 -8 -8 -10 -8 -16 2 -25 22 -18 112 -31 145 -21 58 16 233 14 297 -5 33 -9 87 -21 120 -26 33 -6 90 -15 127 -21 76 -13 100 -23 80 -36 -18 -12 -5 -39 18 -37 11 1 26 8 33 17 6 9 21 18 32 21 18 4 18 5 -2 6 -25 1 -29 20 -12 52 7 13 14 17 22 11 7 -4 32 -14 57 -21 65 -19 120 -49 120 -66 0 -14 29 -35 49 -35 5 0 17 14 25 31 12 24 13 35 5 46 -9 11 -7 13 12 11 18 -2 25 2 27 18 4 25 -50 64 -116 84 -37 12 -45 12 -53 -1 -8 -12 -11 -11 -20 4 -5 9 -17 17 -24 17 -23 0 -18 20 5 21 54 4 60 13 21 34 -17 8 -31 19 -31 24 0 5 -7 12 -16 15 -8 3 -12 2 -9 -4 3 -6 -3 -10 -15 -10 -16 0 -19 5 -15 23 4 17 -1 26 -25 39 -30 17 -40 38 -19 38 7 0 18 8 25 18 12 15 13 14 14 -10 0 -23 4 -28 25 -28 18 0 25 -5 25 -19 0 -10 6 -18 13 -18 22 1 117 -47 117 -59 0 -15 65 -82 103 -107 26 -17 27 -17 27 0 0 10 -7 27 -15 37 -8 11 -15 26 -15 33 0 25 -64 103 -82 99 -14 -3 -28 15 -58 73 -28 54 -67 105 -130 170 -51 53 -94 108 -100 127 -7 19 -15 34 -19 34 -3 0 -20 12 -37 28 -35 31 -70 53 -131 84 -23 12 -43 29 -46 38 -3 13 -20 19 -68 23 -38 4 -67 3 -73 -3 -7 -7 -6 -10 2 -10 7 0 12 -7 12 -15 0 -8 -4 -15 -10 -15 -5 0 -10 4 -10 8 0 18 -82 53 -132 56 -29 2 -71 6 -93 9 -22 2 -67 2 -99 -2z m599 -403 c15 -7 24 -17 21 -25 -3 -8 2 -17 12 -20 23 -9 71 -64 72 -84 0 -8 -6 -23 -13 -33 -12 -16 -15 -14 -41 26 -16 23 -44 62 -62 85 -48 59 -45 77 11 51z m-345 -105 c0 -12 -53 -63 -66 -63 -28 0 -22 18 14 44 37 26 52 32 52 19z m-155 -96 c-29 -63 -53 -79 -28 -19 26 63 46 98 50 86 2 -6 -8 -36 -22 -67z m-235 9 c0 -7 -16 -21 -35 -32 -21 -11 -34 -25 -33 -34 3 -14 -49 -46 -59 -36 -6 6 68 76 80 76 5 0 6 8 3 17 -8 19 10 34 31 26 7 -3 13 -11 13 -17z m340 -68 c0 -7 -11 -20 -23 -29 -18 -12 -26 -13 -45 -3 -23 11 -23 12 15 27 47 20 53 20 53 5z" style="paint-order: stroke;"/>
    <path d="M5194 7561 c-23 -10 -54 -35 -70 -55 -16 -20 -37 -36 -47 -36 -23 0 -104 -65 -112 -90 -3 -11 -17 -20 -33 -22 -21 -2 -27 -8 -28 -28 0 -38 -17 -60 -47 -62 -26 -2 -28 -6 -27 -43 3 -66 4 -65 -48 -65 l-48 0 0 -36 c0 -23 -6 -39 -17 -45 -9 -6 -17 -18 -17 -27 0 -40 -21 -89 -44 -101 -24 -13 -47 -71 -62 -154 -4 -22 -17 -46 -33 -60 -24 -20 -28 -33 -38 -116 -11 -97 -8 -135 9 -125 6 4 7 -2 3 -15 -4 -12 -4 -44 0 -71 6 -44 8 -48 25 -38 10 7 28 28 39 48 11 19 29 46 40 59 22 26 28 51 11 51 -19 0 -10 21 25 54 19 19 35 39 35 45 0 17 -27 13 -34 -4 -3 -8 -12 -15 -20 -15 -13 0 -12 6 5 35 12 19 28 35 36 35 23 0 63 47 78 91 13 35 12 39 -6 44 -32 10 -22 26 14 20 26 -5 38 0 64 25 18 16 36 30 42 30 6 0 22 12 36 26 19 19 25 35 23 55 -2 18 3 33 12 39 23 14 4 23 -20 10 -14 -8 -26 -8 -32 -2 -12 12 27 42 54 42 10 0 18 4 18 10 0 5 14 16 30 25 29 15 42 45 19 45 -6 0 -1 15 10 34 12 18 21 40 21 48 0 9 7 21 15 28 11 9 14 22 9 44 -5 28 -4 29 8 13 12 -17 15 -17 45 -2 40 20 48 32 34 49 -17 20 -3 43 47 82 58 44 85 83 70 101 -8 10 -6 13 8 13 18 1 18 1 0 15 -26 20 -52 19 -102 -4z" style="paint-order: stroke;"/>
    <path d="M7120 6770 c0 -6 7 -13 15 -16 8 -4 15 -12 15 -20 0 -8 1 -14 3 -14 1 0 17 -4 34 -9 45 -13 50 3 11 32 -39 30 -78 43 -78 27z" style="paint-order: stroke;"/>
    <path d="M7295 6538 c9 -53 32 -101 45 -93 15 9 12 25 -12 82 -28 64 -42 68 -33 11z" style="paint-order: stroke;"/>
    <path d="M6846 6132 c-8 -13 69 -63 87 -56 8 3 20 -2 27 -11 16 -19 30 -19 30 -1 0 25 -37 60 -66 62 -16 2 -39 6 -50 9 -12 4 -24 2 -28 -3z" style="paint-order: stroke;"/>
    <path d="M6636 6021 c-8 -13 2 -17 61 -25 25 -4 44 -2 48 5 10 15 6 17 -51 24 -34 5 -54 3 -58 -4z" style="paint-order: stroke;"/>
    <path d="M6585 5865 c-5 -2 -30 -10 -55 -17 -44 -13 -42 -13 85 -18 72 -3 131 -5 133 -4 1 1 0 8 -3 16 -4 10 -21 15 -50 16 -24 0 -57 3 -72 5 -15 3 -32 4 -38 2z" style="paint-order: stroke;"/>
    <path d="M6893 5587 c-4 -7 -23 -22 -40 -32 -18 -11 -33 -23 -33 -27 0 -13 -44 -48 -55 -45 -5 3 -18 0 -27 -5 -11 -5 -25 -4 -38 4 -18 11 -23 10 -36 -7 -22 -30 -98 -13 -133 29 -9 11 -31 16 -70 16 -40 0 -63 6 -81 20 -30 23 -58 26 -66 5 -8 -19 -28 -19 -43 -1 -18 22 -85 30 -128 15 -21 -7 -45 -12 -55 -11 -9 2 -19 -2 -23 -8 -3 -5 -19 -10 -36 -10 -19 0 -29 -5 -29 -15 0 -10 -10 -15 -32 -15 -50 0 -80 -11 -74 -26 3 -7 -1 -20 -9 -28 -18 -18 -19 -26 -2 -26 16 0 87 -58 87 -71 0 -6 -12 -26 -26 -44 -14 -19 -23 -39 -20 -44 4 -5 2 -13 -4 -16 -11 -7 -10 -155 1 -155 15 0 58 59 64 87 9 43 22 50 48 24 19 -18 20 -24 9 -42 -26 -41 1 -40 44 2 24 24 44 38 44 31 0 -6 18 -21 40 -32 38 -20 40 -20 40 -2 0 11 -9 27 -20 37 -11 10 -20 23 -20 30 0 7 -11 33 -25 59 -26 48 -18 60 24 34 14 -9 32 -8 77 1 128 28 165 31 227 21 34 -5 94 -10 133 -10 67 0 71 -2 93 -30 30 -42 25 -66 -14 -62 -27 3 -28 2 -15 -12 9 -9 51 -19 105 -26 70 -9 94 -16 108 -32 24 -28 10 -41 -49 -44 -47 -3 -71 -15 -61 -31 3 -5 27 -8 54 -7 66 3 63 2 71 22 4 9 17 32 27 50 20 34 20 34 79 28 33 -3 70 -13 82 -21 26 -17 74 -20 74 -6 0 5 -5 11 -11 13 -7 2 -4 23 8 63 14 43 19 89 19 160 l-1 99 -32 0 c-26 -1 -33 3 -33 17 0 21 -37 34 -67 25 -13 -4 -21 1 -28 17 -7 16 -21 23 -50 27 -22 3 -45 9 -52 13 -6 4 -15 1 -20 -6z" style="paint-order: stroke;"/>
    <path d="M5392 5570 c-12 -20 -129 -79 -167 -85 -56 -8 -174 -25 -205 -29 -48 -5 -192 -44 -203 -55 -5 -5 -4 -17 2 -29 13 -24 6 -32 -28 -32 -56 0 -53 -17 6 -33 56 -16 61 -16 113 3 29 11 56 18 58 15 3 -2 20 2 39 10 20 8 46 15 59 15 13 0 24 4 24 9 0 18 31 20 47 2 23 -25 126 -39 148 -21 12 10 33 10 105 0 80 -11 90 -11 105 4 9 9 33 16 54 16 30 0 40 5 53 28 9 15 38 49 64 74 53 52 53 69 0 44 -19 -9 -39 -16 -45 -16 -5 0 -47 20 -93 44 -110 58 -121 60 -136 36z" style="paint-order: stroke;"/>
    <path d="M7564 5530 c-27 -11 -74 -67 -74 -88 0 -10 5 -33 11 -52 24 -81 30 -178 20 -344 -3 -48 -1 -71 7 -74 7 -2 12 5 12 16 0 10 13 70 29 133 30 116 58 369 45 402 -7 19 -18 20 -50 7z" style="paint-order: stroke;"/>
    <path d="M7467 5393 c-4 -3 -7 -13 -7 -21 0 -9 -6 -23 -13 -31 -30 -35 -62 -155 -72 -266 -13 -145 -13 -156 2 -170 8 -8 21 -15 29 -15 8 0 14 -4 14 -8 0 -8 53 -42 67 -42 4 0 16 20 26 45 19 45 16 70 -7 62 -14 -6 -12 53 4 151 5 28 7 58 5 65 -3 6 -9 59 -14 116 -9 98 -19 130 -34 114z" style="paint-order: stroke;"/>
    <path d="M5271 5231 c-30 -10 -50 -20 -45 -23 15 -10 125 13 121 25 -5 17 -18 17 -76 -2z" style="paint-order: stroke;"/>
    <path d="M6496 5201 c-16 -25 97 -61 190 -61 50 0 74 8 74 24 0 9 -27 13 -93 13 -66 0 -102 5 -124 17 -37 19 -40 19 -47 7z" style="paint-order: stroke;"/>
    <path d="M6160 5115 c-12 -32 2 -57 26 -48 18 7 15 64 -3 71 -7 2 -18 -9 -23 -23z" style="paint-order: stroke;"/>
    <path d="M7088 4901 c-13 -4 -15 -10 -8 -21 5 -8 10 -30 10 -47 0 -18 5 -33 10 -33 17 0 23 29 14 69 -7 30 -13 37 -26 32z" style="paint-order: stroke;"/>
    <path d="M7357 4874 c-3 -3 -4 -34 -1 -68 4 -49 2 -69 -15 -100 -14 -27 -17 -44 -11 -56 19 -35 15 -85 -8 -108 -12 -12 -19 -28 -16 -36 6 -15 39 3 104 57 28 24 41 57 21 57 -18 0 -21 33 -4 52 25 28 21 79 -12 144 -29 56 -44 71 -58 58z" style="paint-order: stroke;"/>
    <path d="M7147 4843 c-3 -3 -4 -10 -2 -16 2 -7 6 -24 9 -39 9 -41 26 -34 26 11 0 35 -18 60 -33 44z" style="paint-order: stroke;"/>
    <path d="M5211 4496 c-7 -13 -24 -29 -37 -35 -13 -5 -30 -25 -37 -43 -8 -18 -26 -39 -40 -47 -29 -15 -35 -39 -15 -59 21 -21 36 -13 49 26 7 20 27 51 44 67 31 29 75 92 75 108 0 17 -28 5 -39 -17z" style="paint-order: stroke;"/>
    <path d="M6493 4423 c-18 -7 -16 -30 3 -37 26 -10 44 -7 44 9 0 17 -29 34 -47 28z" style="paint-order: stroke;"/>
    <path d="M5767 4342 c-35 -38 -30 -110 6 -96 12 4 17 18 17 44 0 22 5 42 10 45 6 3 10 10 10 16 0 15 -26 10 -43 -9z" style="paint-order: stroke;"/>
    <path d="M6436 3885 c-8 -49 -4 -61 13 -50 13 7 14 64 2 84 -6 9 -11 -2 -15 -34z" style="paint-order: stroke;"/>
    <path d="M4976 3904 c-11 -29 -5 -69 13 -91 11 -13 21 -23 24 -23 3 0 8 16 12 36 11 60 -30 127 -49 78z" style="paint-order: stroke;"/>
    <path d="M5044 3835 c-7 -38 0 -55 15 -39 15 14 17 66 4 71 -7 3 -15 -10 -19 -32z" style="paint-order: stroke;"/>
    <path d="M5116 3831 c-21 -23 -21 -60 0 -68 20 -7 34 13 34 49 0 35 -13 42 -34 19z" style="paint-order: stroke;"/>
    <path d="M5924 3570 c-15 -22 -24 -43 -20 -47 9 -9 52 37 60 65 12 36 -11 25 -40 -18z" style="paint-order: stroke;"/>
    <path d="M5780 3568 c-29 -47 -25 -70 5 -33 22 27 33 65 20 65 -3 0 -14 -15 -25 -32z" style="paint-order: stroke;"/>
    <path d="M6291 3508 c-8 -35 -8 -55 -1 -62 7 -7 10 -6 10 2 0 7 9 12 20 12 22 0 27 15 9 26 -6 4 -8 20 -4 40 4 26 2 34 -9 34 -9 0 -18 -18 -25 -52z" style="paint-order: stroke;"/>
    <path d="M5947 3502 c-21 -23 -22 -54 -2 -92 21 -41 35 -38 36 8 3 89 -7 114 -34 84z" style="paint-order: stroke;"/>
    <path d="M5762 3433 c2 -32 7 -39 28 -42 14 -1 28 -8 32 -15 5 -6 8 -2 8 11 0 12 -4 25 -10 28 -5 3 -10 14 -10 25 0 17 -18 30 -41 30 -6 0 -9 -17 -7 -37z" style="paint-order: stroke;"/>
    <path d="M8600 3613 c-59 -66 -65 -84 -46 -120 l15 -30 -60 -18 c-91 -28 -162 -115 -202 -251 -13 -44 -13 -62 -2 -126 30 -174 141 -306 320 -380 68 -28 92 -33 160 -33 97 1 143 19 232 94 69 58 110 129 117 203 4 41 5 43 33 40 27 -3 37 6 102 88 40 50 74 97 77 104 3 7 -42 45 -106 91 -60 43 -111 83 -111 89 -1 6 0 19 1 30 2 21 -33 62 -72 82 -15 8 -29 14 -32 14 -12 0 -236 -305 -236 -321 0 -13 42 -51 77 -70 22 -12 27 -11 43 11 16 20 22 23 37 14 24 -15 29 -72 8 -110 -67 -125 -271 -69 -356 97 -62 122 36 225 168 177 34 -12 35 -12 79 37 37 41 84 113 84 128 0 7 -120 97 -129 97 -5 0 -19 13 -30 29 -11 16 -38 36 -60 44 -22 9 -42 21 -46 27 -11 18 -22 11 -65 -37z m-130 -573 c0 -5 -5 -10 -11 -10 -5 0 -7 5 -4 10 3 6 8 10 11 10 2 0 4 -4 4 -10z m80 -30 c0 -5 -2 -10 -4 -10 -3 0 -8 5 -11 10 -3 6 -1 10 4 10 6 0 11 -4 11 -10z m-100 -14 c0 -3 -4 -8 -10 -11 -5 -3 -10 -1 -10 4 0 6 5 11 10 11 6 0 10 -2 10 -4z m57 -32 c-3 -3 -12 -4 -19 -1 -8 3 -5 6 6 6 11 1 17 -2 13 -5z m243 -164 c0 -5 -2 -10 -4 -10 -3 0 -8 5 -11 10 -3 6 -1 10 4 10 6 0 11 -4 11 -10z" style="paint-order: stroke;"/>
    <path d="M2955 3577 c-119 -49 -153 -66 -203 -106 -63 -50 -117 -131 -149 -222 -22 -64 -22 -70 -9 -142 19 -98 34 -131 98 -216 85 -115 233 -199 331 -189 31 3 32 4 49 93 9 50 17 95 17 101 1 5 -34 20 -76 33 -90 26 -126 53 -149 111 -15 38 -15 44 1 88 49 128 213 222 318 183 66 -25 78 -97 28 -172 -34 -50 -36 -46 51 -158 l48 -61 77 50 c88 57 189 138 198 159 3 8 -18 45 -50 87 -50 67 -57 73 -84 68 l-28 -6 -8 66 c-9 92 -61 156 -171 212 -70 35 -85 39 -158 40 -61 1 -93 -4 -131 -19z m176 -104 c13 -15 12 -15 -8 -4 -24 12 -29 21 -14 21 5 0 15 -7 22 -17z m44 7 c-3 -5 -10 -10 -16 -10 -5 0 -9 5 -9 10 0 6 7 10 16 10 8 0 12 -4 9 -10z m-145 -60 c0 -5 -7 -10 -16 -10 -8 0 -12 5 -9 10 3 6 10 10 16 10 5 0 9 -4 9 -10z m245 -40 c3 -5 2 -10 -4 -10 -5 0 -13 5 -16 10 -3 6 -2 10 4 10 5 0 13 -4 16 -10z m-350 -49 c-6 -5 -25 10 -25 20 0 5 6 4 14 -3 8 -7 12 -15 11 -17z m-175 -65 c0 -3 -4 -8 -10 -11 -5 -3 -10 -1 -10 4 0 6 5 11 10 11 6 0 10 -2 10 -4z" style="paint-order: stroke;"/>
    <path d="M3650 2963 c-115 -13 -251 -104 -335 -222 -70 -101 -88 -157 -83 -271 5 -115 25 -167 94 -240 59 -63 198 -157 261 -176 130 -39 254 4 384 135 43 43 86 96 95 117 9 22 24 50 33 64 26 37 41 100 41 166 -1 166 -147 345 -333 406 -82 27 -91 28 -157 21z m165 -249 c20 -8 45 -56 45 -88 0 -56 -51 -152 -119 -223 -104 -109 -192 -132 -227 -58 -23 50 -3 152 40 202 9 10 29 33 43 51 30 38 119 107 149 115 29 7 51 8 69 1z m155 -18 c0 -3 -4 -8 -10 -11 -5 -3 -10 -1 -10 4 0 6 5 11 10 11 6 0 10 -2 10 -4z m-540 -103 c0 -20 -3 -24 -11 -16 -7 7 -9 19 -6 27 10 24 17 19 17 -11z m30 -13 c0 -11 -4 -20 -10 -20 -5 0 -10 9 -10 20 0 11 5 20 10 20 6 0 10 -9 10 -20z m510 -60 c0 -5 -2 -10 -4 -10 -3 0 -8 5 -11 10 -3 6 -1 10 4 10 6 0 11 -4 11 -10z m-75 -60 c-3 -5 -11 -10 -16 -10 -6 0 -7 5 -4 10 3 6 11 10 16 10 6 0 7 -4 4 -10z m-525 -20 c0 -5 -2 -10 -4 -10 -3 0 -8 5 -11 10 -3 6 -1 10 4 10 6 0 11 -4 11 -10z m22 -52 c-7 -7 -12 -8 -12 -2 0 14 12 26 19 19 2 -3 -1 -11 -7 -17z m12 -54 c5 -14 4 -15 -9 -4 -17 14 -19 20 -6 20 5 0 12 -7 15 -16z m356 -64 c0 -5 -4 -10 -10 -10 -5 0 -10 5 -10 10 0 6 5 10 10 10 6 0 10 -4 10 -10z" style="paint-order: stroke;"/>
    <path d="M8041 2932 c-27 -20 -91 -65 -141 -100 -91 -64 -106 -86 -75 -112 8 -7 15 -18 15 -24 0 -6 14 -24 31 -40 l31 -29 31 18 c17 10 32 14 34 9 2 -6 20 -32 41 -60 43 -58 67 -102 60 -109 -4 -5 -185 61 -268 97 -19 8 -66 27 -104 41 -62 24 -72 25 -90 12 -12 -8 -73 -49 -136 -93 -107 -73 -115 -80 -112 -107 5 -42 64 -121 88 -117 57 10 56 10 164 -149 58 -85 120 -175 139 -198 l34 -43 -28 -22 -29 -23 26 -44 c14 -24 37 -55 51 -67 30 -28 29 -28 155 62 48 34 106 75 130 89 23 15 42 34 42 42 0 12 -52 95 -81 129 -4 5 -24 -1 -44 -14 -41 -25 -54 -19 -82 34 -9 17 -22 36 -29 41 -7 6 -22 27 -33 48 -20 35 -20 37 -2 37 20 0 152 -49 216 -80 22 -11 45 -20 51 -20 7 0 36 -11 65 -24 70 -31 110 -38 136 -23 33 20 167 111 181 124 18 17 15 29 -16 65 -16 18 -55 74 -87 123 -79 122 -109 167 -178 260 -84 113 -86 119 -53 150 18 16 24 30 19 39 -18 31 -79 106 -90 110 -6 3 -34 -12 -62 -32z m-171 -478 c0 -8 -5 -12 -10 -9 -6 4 -8 11 -5 16 9 14 15 11 15 -7z m-105 -74 c3 -5 1 -10 -4 -10 -6 0 -11 5 -11 10 0 6 2 10 4 10 3 0 8 -4 11 -10z m-155 -4 c0 -3 -4 -8 -10 -11 -5 -3 -10 -1 -10 4 0 6 5 11 10 11 6 0 10 -2 10 -4z m340 -26 c0 -5 -2 -10 -4 -10 -3 0 -8 5 -11 10 -3 6 -1 10 4 10 6 0 11 -4 11 -10z m266 -52 c-23 -16 -26 -7 -17 52 1 3 7 -6 14 -20 9 -17 10 -27 3 -32z m-213 9 c6 -15 -27 -17 -40 -2 -5 4 -3 5 4 1 6 -3 14 -2 18 4 8 13 12 13 18 -3z m-303 -12 c0 -12 -19 -12 -23 0 -4 9 -1 12 9 8 7 -3 14 -7 14 -8z m30 -55 c0 -5 -4 -10 -10 -10 -5 0 -10 5 -10 10 0 6 5 10 10 10 6 0 10 -4 10 -10z m127 -312 c-3 -8 -6 -5 -6 6 -1 11 2 17 5 13 3 -3 4 -12 1 -19z" style="paint-order: stroke;"/>
    <path d="M4395 2494 c-20 -21 -55 -89 -55 -109 0 -8 5 -24 12 -35 10 -15 9 -22 -3 -37 -9 -10 -58 -67 -109 -128 -207 -246 -212 -250 -259 -225 -20 10 -24 7 -46 -43 -14 -29 -27 -67 -31 -83 -5 -28 -3 -30 48 -48 29 -11 106 -43 170 -73 65 -30 122 -52 127 -49 11 7 59 108 63 133 2 9 -10 23 -27 33 -36 20 -43 45 -16 59 16 9 38 3 115 -30 84 -36 96 -44 101 -71 4 -16 4 -32 1 -35 -3 -3 -25 2 -49 11 -23 9 -46 16 -49 16 -8 0 -45 -79 -58 -122 -10 -33 -7 -36 95 -78 103 -41 121 -49 239 -104 54 -25 102 -44 106 -41 15 9 60 113 60 138 0 20 -6 27 -30 32 -16 4 -32 10 -35 15 -3 4 1 59 9 122 8 62 18 145 21 183 4 39 13 119 21 178 8 59 14 139 14 176 0 67 -1 69 -27 76 -15 3 -79 30 -143 60 -124 57 -218 95 -237 95 -6 0 -19 -7 -28 -16z m325 -233 c0 -6 -4 -13 -10 -16 -5 -3 -10 1 -10 9 0 9 5 16 10 16 6 0 10 -4 10 -9z m-165 -31 c3 -5 1 -10 -4 -10 -6 0 -11 5 -11 10 0 6 2 10 4 10 3 0 8 -4 11 -10z m-35 -155 c-7 -47 -16 -87 -20 -90 -11 -7 -99 37 -99 50 -1 17 123 149 127 136 2 -7 -1 -50 -8 -96z m162 -7 c-7 -7 -12 -8 -12 -2 0 14 12 26 19 19 2 -3 -1 -11 -7 -17z m-52 -38 c0 -5 -5 -10 -11 -10 -5 0 -7 5 -4 10 3 6 8 10 11 10 2 0 4 -4 4 -10z m-45 -170 c3 -5 1 -10 -4 -10 -6 0 -11 5 -11 10 0 6 2 10 4 10 3 0 8 -4 11 -10z m40 -230 c-3 -5 -11 -10 -16 -10 -6 0 -7 5 -4 10 3 6 11 10 16 10 6 0 7 -4 4 -10z" style="paint-order: stroke;"/>
    <path d="M7150 2401 c-41 -15 -88 -34 -105 -41 -16 -8 -61 -25 -100 -39 -66 -25 -70 -28 -73 -59 -2 -19 3 -41 11 -50 8 -10 17 -29 21 -43 7 -32 30 -43 57 -29 27 15 37 6 50 -43 6 -23 44 -126 85 -229 41 -103 74 -189 74 -192 0 -2 -13 -9 -30 -15 -37 -13 -38 -32 -5 -107 24 -54 26 -56 57 -51 18 2 85 26 148 51 63 26 135 55 160 65 39 15 45 21 43 44 -1 15 -13 52 -27 82 -24 54 -25 54 -56 44 -37 -13 -60 1 -60 37 0 22 -87 257 -132 356 -24 53 -20 74 17 88 14 5 25 14 25 20 0 24 -60 140 -72 139 -7 0 -47 -13 -88 -28z m100 -611 c0 -5 -2 -10 -4 -10 -3 0 -8 5 -11 10 -3 6 -1 10 4 10 6 0 11 -4 11 -10z m77 -36 c-3 -3 -12 -4 -19 -1 -8 3 -5 6 6 6 11 1 17 -2 13 -5z" style="paint-order: stroke;"/>
    <path d="M6630 2219 c-69 -10 -156 -24 -194 -30 l-68 -11 7 -42 c4 -22 10 -59 14 -81 5 -37 9 -40 41 -45 34 -5 35 -6 44 -67 5 -34 6 -68 3 -75 -5 -15 -182 -46 -194 -34 -3 3 -10 33 -14 65 -5 33 -10 65 -11 71 -2 6 13 17 32 23 35 12 35 12 34 72 0 33 -6 70 -13 83 -15 28 -49 29 -196 3 -60 -11 -132 -23 -159 -26 l-49 -7 7 -76 c4 -42 9 -79 12 -84 3 -4 19 -8 35 -8 37 0 43 -14 58 -140 7 -52 21 -151 32 -219 11 -68 16 -127 12 -132 -4 -4 -19 -9 -33 -11 -24 -3 -25 -5 -24 -76 1 -41 7 -79 13 -85 8 -8 31 -8 83 1 40 7 105 14 143 17 39 3 93 9 120 13 l50 7 -1 66 c-1 89 -6 99 -48 99 -19 0 -37 3 -39 8 -3 4 -8 39 -11 77 l-7 70 56 18 c38 13 69 16 98 12 l44 -7 12 -64 c15 -75 11 -94 -23 -94 -26 0 -43 -30 -30 -51 3 -6 9 -34 13 -63 6 -49 7 -51 39 -54 18 -2 67 4 110 12 42 8 114 18 160 22 95 8 106 17 92 80 -5 21 -10 53 -10 71 0 29 -3 32 -37 35 l-38 3 -17 160 c-10 88 -24 193 -33 234 -20 97 -20 97 18 108 31 9 32 11 29 54 -4 55 -20 119 -30 118 -4 -1 -63 -10 -132 -20z m-5 -329 c3 -5 1 -10 -4 -10 -6 0 -11 5 -11 10 0 6 2 10 4 10 3 0 8 -4 11 -10z m5 -95 c0 -8 -4 -15 -10 -15 -5 0 -10 7 -10 15 0 8 5 15 10 15 6 0 10 -7 10 -15z m30 5 c0 -5 -2 -10 -4 -10 -3 0 -8 5 -11 10 -3 6 -1 10 4 10 6 0 11 -4 11 -10z m70 -230 c0 -5 -5 -10 -11 -10 -5 0 -7 5 -4 10 3 6 8 10 11 10 2 0 4 -4 4 -10z m-555 -30 c3 -5 1 -10 -4 -10 -6 0 -11 5 -11 10 0 6 2 10 4 10 3 0 8 -4 11 -10z m485 6 c0 -3 -4 -8 -10 -11 -5 -3 -10 -1 -10 4 0 6 5 11 10 11 6 0 10 -2 10 -4z m-474 -83 c-10 -10 -19 5 -10 18 6 11 8 11 12 0 2 -7 1 -15 -2 -18z" style="paint-order: stroke;"/>
    <path d="M5295 2188 c-145 -36 -260 -177 -300 -365 -20 -91 -19 -125 6 -213 33 -119 62 -164 143 -217 79 -53 136 -71 252 -80 124 -9 241 26 317 95 15 14 27 30 27 35 0 8 -80 124 -110 160 -4 4 -38 -10 -76 -33 -76 -44 -128 -51 -190 -25 -81 34 -107 204 -49 320 35 70 80 105 136 105 31 0 42 -6 60 -32 12 -17 28 -54 34 -82 l11 -51 70 -12 c38 -6 88 -12 112 -12 40 -1 42 0 42 28 0 17 6 58 14 93 8 35 17 100 20 144 7 95 13 90 -116 101 -66 5 -78 4 -84 -11 -9 -23 -25 -20 -67 15 -20 17 -52 35 -69 40 -41 11 -130 10 -183 -3z m-15 -118 c0 -5 -4 -10 -10 -10 -5 0 -10 5 -10 10 0 6 5 10 10 10 6 0 10 -4 10 -10z m140 0 c0 -5 -4 -10 -10 -10 -5 0 -10 5 -10 10 0 6 5 10 10 10 6 0 10 -4 10 -10z m-103 -42 c-3 -8 -6 -5 -6 6 -1 11 2 17 5 13 3 -3 4 -12 1 -19z m-67 8 c0 -2 -7 -6 -15 -10 -8 -3 -15 -1 -15 4 0 6 7 10 15 10 8 0 15 -2 15 -4z m-20 -110 c0 -2 -7 -9 -15 -16 -12 -10 -15 -10 -15 4 0 9 7 16 15 16 8 0 15 -2 15 -4z m-25 -136 c-3 -5 -10 -10 -16 -10 -5 0 -9 5 -9 10 0 6 7 10 16 10 8 0 12 -4 9 -10z" style="paint-order: stroke;"/>
  </g>
</svg>